<svg xmlns="http://www.w3.org/2000/svg" viewBox="0 0 1080 1079" width="1080" height="1079"><defs></defs><g transform="matrix(1,0,0,1,0,0)">
<g>
	<g transform="matrix(10.520134232,0,0,10.520134232,-5237.489379048,-6411.528893157)">
		<g transform="matrix(1.283291458,0,0,1.283291458,-143.040008198,-201.616145926)">
			<path d="M578.637929,679.871486C579.669691,674.689006 579.669691,669.353969 578.637929,664.171489 C578.637929,664.171489 568.279928,663.859489 568.279928,663.859489 C567.643621,661.60163 566.742704,659.426879 565.59593,657.380489 C565.59593,657.380489 572.697935,649.838487 572.697935,649.838487 C569.762723,645.444263 565.990156,641.671693 561.59593,638.736488 C561.59593,638.736488 554.05393,645.838487 554.05393,645.838487 C552.007337,644.692127 549.832639,643.791232 547.57493,643.154487 C547.57493,643.154487 547.262929,632.796487 547.262929,632.796487 C542.080449,631.764728 536.745412,631.764728 531.562932,632.796487 C531.562932,632.796487 531.250932,643.154487 531.250932,643.154487 C528.993074,643.790799 526.818323,644.691715 524.771932,645.838487 C524.771932,645.838487 517.22993,638.736488 517.22993,638.736488 C512.835706,641.671693 509.063136,645.444263 506.127931,649.838487 C506.127931,649.838487 513.22993,657.380489 513.22993,657.380489 C512.08357,659.427081 511.182676,661.601779 510.54593,663.859489 C510.54593,663.859489 500.18793,664.171489 500.18793,664.171489 C499.156171,669.353969 499.156171,674.689006 500.18793,679.871486 C500.18793,679.871486 510.54593,680.183486 510.54593,680.183486 C511.182243,682.441345 512.083158,684.616096 513.22993,686.662486 C513.22993,686.662486 506.127931,694.204486 506.127931,694.204486 C509.063136,698.598712 512.835706,702.37128 517.22993,705.306491 C517.22993,705.306491 524.771932,698.204486 524.771932,698.204486 C526.818525,699.350848 528.993223,700.251743 531.250932,700.888484 C531.250932,700.888484 531.562932,711.246486 531.562932,711.246486 C536.745412,712.278247 542.080449,712.278247 547.262929,711.246486 C547.262929,711.246486 547.57493,700.888484 547.57493,700.888484 C549.832788,700.252178 552.007539,699.35126 554.05393,698.204486 C554.05393,698.204486 561.59593,705.306491 561.59593,705.306491 C565.990156,702.37128 569.762723,698.598712 572.697935,694.204486 C572.697935,694.204486 565.59593,686.662486 565.59593,686.662486 C566.742292,684.615894 567.643186,682.441196 568.279928,680.183486 C568.279928,680.183486 578.637929,679.871486 578.637929,679.871486 C578.637929,679.871486 578.637929,679.871486 578.637929,679.871486 ZM539.412931,687.021487C531.12893,687.021487 524.412931,680.305488 524.412931,672.021487 C524.412931,663.737487 531.12893,657.021487 539.412931,657.021487 C547.696931,657.021487 554.412931,663.737487 554.412931,672.021487 C554.412931,680.305488 547.696931,687.021487 539.412931,687.021487 C539.412931,687.021487 539.412931,687.021487 539.412931,687.021487 Z" fill="#b5b5b5"/>
		</g>
	</g>
</g></g></svg>