<svg xmlns="http://www.w3.org/2000/svg" viewBox="0 0 1685 1685" width="1685" height="1685"><defs></defs><g transform="matrix(1,0,0,1,302.556998529,302.556998529)">
<g>
	<g transform="matrix(10.520134232,0,0,10.520134232,-3167.489379048,-1761.528893157)">
		<g transform="matrix(0.148314718,0,0,0.148314718,304.661108963,186.737740272)">
			<g>
				<path d="M-218,-324C-218,-324 862,-324 862,-324 C862,-324 862,756 862,756 C862,756 -218,756 -218,756 C-218,756 -218,-324 -218,-324 Z" fill="#ffffff" fill-opacity="0"/>
			</g>
			<g>
				<g>
					<g>
						<g>
							<g>
								<path d="M-1.046229,342.334076C-1.046229,342.334076 -1.046229,396.174555 -1.046229,396.174555 C-1.046229,403.739169 4.84931,409.634675 12.413891,409.634675 C12.413891,409.634675 89.80958,409.634675 89.80958,409.634675 C135.250958,409.634675 173.100809,388.610007 204.220599,356.628749 C236.201824,324.647491 262.260662,281.763536 288.346348,240.521742 C309.371082,206.871442 330.422696,174.89025 352.281918,150.500486 C373.306651,125.249288 394.358266,110.120127 419.582517,110.120127 C419.582517,110.120127 491.0827,110.120127 491.0827,110.120127 C491.0827,110.120127 491.0827,171.52522 491.0827,171.52522 C491.0827,190.880846 504.54282,194.245876 520.533416,181.62031 C520.533416,181.62031 637.474912,84.034408 637.474912,84.034408 C647.570002,75.60836 647.570002,59.644677 637.474912,51.218629 C637.474912,51.218629 520.533416,-45.532686 520.533416,-45.532686 C504.54282,-58.992806 491.0827,-55.627776 491.0827,-35.437596 C491.0827,-35.437596 491.0827,29.332494 491.0827,29.332494 C491.0827,29.332494 419.582517,29.332494 419.582517,29.332494 C373.306651,29.332494 337.12581,49.522674 305.171498,82.33842 C274.051675,114.319678 245.435513,157.203633 220.211228,197.58396 C198.32506,232.068813 178.13488,264.884625 156.275659,289.274322 C135.250958,313.66402 114.199311,328.820194 89.80958,328.820194 C89.80958,328.820194 12.413891,328.820194 12.413891,328.820194 C4.84931,328.820194 -1.046229,334.7157 -1.046229,342.280314 C-1.046229,342.280314 -1.046229,342.334076 -1.046229,342.334076 C-1.046229,342.334076 -1.046229,342.334076 -1.046229,342.334076 ZM-1.046229,41.985007C-1.046229,41.985007 -1.046229,95.825486 -1.046229,95.825486 C-1.046229,103.390067 4.84931,109.285606 12.413891,109.285606 C12.413891,109.285606 89.80958,109.285606 89.80958,109.285606 C127.659431,109.285606 157.9447,146.300936 190.760479,194.245876 C191.595,191.7154 192.456468,190.046292 193.290988,188.35037 C194.125509,187.515816 196.656018,185.819828 197.490539,184.150786 C210.116138,163.126085 224.410779,142.935906 237.870899,121.049738 C217.680719,94.964019 198.32506,71.408809 173.100809,55.41818 C148.711078,38.59303 121.790838,29.332494 89.80958,29.332494 C89.80958,29.332494 12.413891,29.332494 12.413891,29.332494 C3.153322,29.332494 -1.046229,33.532045 -1.046229,41.95806 C-1.046229,41.95806 -1.046229,41.985007 -1.046229,41.985007 C-1.046229,41.985007 -1.046229,41.985007 -1.046229,41.985007 ZM491.0827,327.178033C491.0827,327.178033 419.582517,327.178033 419.582517,327.178033 C382.567188,327.178033 350.58593,290.997191 318.631618,243.886772 C316.93563,246.417314 316.101142,248.086356 315.266588,249.782344 C313.5706,251.478266 312.736112,253.147374 311.067004,255.67785 C305.171498,265.77294 297.606885,276.702584 291.711378,286.797674 C284.981318,296.05821 278.251258,306.987853 272.355752,316.24839 C291.711378,342.334076 311.901558,365.054797 336.291322,381.018513 C359.846532,397.843663 387.601259,408.77324 419.582517,408.77324 C419.582517,408.77324 491.0827,408.77324 491.0827,408.77324 C491.0827,408.77324 491.0827,467.674738 491.0827,467.674738 C491.0827,487.030364 504.54282,491.229948 520.533416,477.769828 C520.533416,477.769828 637.474912,379.349405 637.474912,379.349405 C647.570002,370.923423 647.570002,355.794195 637.474912,347.368213 C637.474912,347.368213 520.533416,250.616832 520.533416,250.616832 C504.54282,237.991266 491.0827,240.521742 491.0827,260.711922 C491.0827,260.711922 491.0827,327.178033 491.0827,327.178033 C491.0827,327.178033 491.0827,327.178033 491.0827,327.178033 C491.0827,327.178033 491.0827,327.178033 491.0827,327.178033 Z" fill="#b5b5b5"/>
							</g>
						</g>
					</g>
				</g>
			</g>
		</g>
	</g>
</g></g></svg>